<svg id="Layer_1" data-name="Layer 1" xmlns="http://www.w3.org/2000/svg" viewBox="0 0 272.24 55.06"><defs><style>.cls-1{fill:#1d1d1b;}</style></defs><title>logo_holidaze</title><path class="cls-1" d="M176.24,257.36h-6.07v-44h6.07v20h23.41v-20h6.06v44h-6.06V236.27H176.24Z" transform="translate(-170.17 -203.02)"/><path class="cls-1" d="M234,258.08a17.47,17.47,0,0,1-6.92-1.35,16.8,16.8,0,0,1-9.07-9.17,17.49,17.49,0,0,1-1.29-6.72,19.18,19.18,0,0,1,1.29-7,18,18,0,0,1,3.6-5.75A16.71,16.71,0,0,1,234,222.77a17.94,17.94,0,0,1,6.86,1.3,16.64,16.64,0,0,1,5.45,3.55,16.09,16.09,0,0,1,3.6,5.28,16.53,16.53,0,0,1,1.29,6.52,20.21,20.21,0,0,1-1.29,7.24,18.39,18.39,0,0,1-3.6,5.94,17,17,0,0,1-5.45,4A16,16,0,0,1,234,258.08Zm1.29-2.48a7.57,7.57,0,0,0,3.89-1,10,10,0,0,0,3.07-2.77,13.47,13.47,0,0,0,2-4,16.28,16.28,0,0,0,.71-4.84,34.21,34.21,0,0,0-.66-6.89,16.77,16.77,0,0,0-2.18-5.61,11,11,0,0,0-3.91-3.76,11.63,11.63,0,0,0-5.88-1.38,7,7,0,0,0-3.53,1,10.16,10.16,0,0,0-3,2.67,13.81,13.81,0,0,0-2.09,4,14.82,14.82,0,0,0-.78,4.83,28.25,28.25,0,0,0,.83,7,18.72,18.72,0,0,0,2.4,5.67,12.32,12.32,0,0,0,3.88,3.83A9.88,9.88,0,0,0,235.29,255.6Z" transform="translate(-170.17 -203.02)"/><path class="cls-1" d="M267.55,257.36h-5.44V207.85l4.38-1.75h1.06Z" transform="translate(-170.17 -203.02)"/><path class="cls-1" d="M280.78,210.41a4.28,4.28,0,0,1,.25-1.49,3.86,3.86,0,0,1,.68-1.23,3.1,3.1,0,0,1,1-.83,2.71,2.71,0,0,1,2.48,0,3.1,3.1,0,0,1,1,.83,3.86,3.86,0,0,1,.68,1.23,4.57,4.57,0,0,1,0,3,4.09,4.09,0,0,1-.68,1.23,3.1,3.1,0,0,1-1,.83,2.8,2.8,0,0,1-2.48,0,3.1,3.1,0,0,1-1-.83,4.09,4.09,0,0,1-.68-1.23A4.28,4.28,0,0,1,280.78,210.41Zm.53,14.12,4.31-1.76h1.06v34.59h-5.37Z" transform="translate(-170.17 -203.02)"/><path class="cls-1" d="M323.68,254.07a20.33,20.33,0,0,1-3.18,2,18.91,18.91,0,0,1-3.07,1.23,18.34,18.34,0,0,1-2.92.61,23.46,23.46,0,0,1-2.73.16,10.75,10.75,0,0,1-5.34-1.39,14.4,14.4,0,0,1-4.33-3.74,18.66,18.66,0,0,1-2.91-5.49,20.15,20.15,0,0,1-1.08-6.62,17.1,17.1,0,0,1,1.36-6.69,19.61,19.61,0,0,1,3.68-5.79,18.1,18.1,0,0,1,5.43-4.06,14.94,14.94,0,0,1,6.67-1.53,17,17,0,0,1,2.07.12,9.9,9.9,0,0,1,2,.45,10.91,10.91,0,0,1,2,1,25.32,25.32,0,0,1,2.35,1.62V207.85L328,206.1h1.06v51.26h-5.37Zm0-19.86a8.12,8.12,0,0,0-.8-3.63,9.31,9.31,0,0,0-2.08-2.82,9.75,9.75,0,0,0-2.92-1.82,8.87,8.87,0,0,0-3.28-.65,8.61,8.61,0,0,0-4.05,1,10,10,0,0,0-3.28,2.8,14.35,14.35,0,0,0-2.21,4.31,17.87,17.87,0,0,0-.81,5.52,20.15,20.15,0,0,0,.88,6.07,16.61,16.61,0,0,0,2.42,4.92,12,12,0,0,0,3.6,3.32,8.61,8.61,0,0,0,4.41,1.21,10.34,10.34,0,0,0,2.35-.28,12.55,12.55,0,0,0,2.21-.77,11,11,0,0,0,1.9-1.11,9.72,9.72,0,0,0,1.49-1.32h.17Z" transform="translate(-170.17 -203.02)"/><path class="cls-1" d="M365.66,252.71a4.45,4.45,0,0,0,.92,2.76,6.46,6.46,0,0,0,2.32,1.89H363a5.09,5.09,0,0,1-2.78-4.65c-.67.47-1.4,1-2.21,1.63a21.72,21.72,0,0,1-2.7,1.76,17.8,17.8,0,0,1-3.31,1.4,13.25,13.25,0,0,1-4.05.58,8.21,8.21,0,0,1-3.33-.64,7.21,7.21,0,0,1-2.51-1.78,8,8,0,0,1-1.59-2.68,9.94,9.94,0,0,1-.56-3.35,9.31,9.31,0,0,1,.84-4,11.08,11.08,0,0,1,2.33-3.23,16.13,16.13,0,0,1,3.44-2.56,34.33,34.33,0,0,1,4.23-2,47.48,47.48,0,0,1,4.68-1.54c1.61-.44,3.19-.85,4.74-1.22v-1.76a17.35,17.35,0,0,0-.37-3.91,6.23,6.23,0,0,0-1.14-2.57,4.26,4.26,0,0,0-2-1.4,9.06,9.06,0,0,0-2.89-.41,7.36,7.36,0,0,0-2.88.56,7.7,7.7,0,0,0-4,3.73,9,9,0,0,0-.83,2.7h-4.84a8.71,8.71,0,0,1,1.46-3.91,10.91,10.91,0,0,1,3-2.9,14.81,14.81,0,0,1,4.08-1.81,17.57,17.57,0,0,1,4.72-.63,18.46,18.46,0,0,1,5.28.65,8.67,8.67,0,0,1,3.39,1.81,6.55,6.55,0,0,1,1.83,2.83,12,12,0,0,1,.55,3.7Zm-5.44-15.12a51.46,51.46,0,0,0-5.21,1.75,31.38,31.38,0,0,0-4.79,2.33,15.27,15.27,0,0,0-3.5,2.85,5,5,0,0,0-1.36,3.32,5.62,5.62,0,0,0,.52,2.37,6.72,6.72,0,0,0,1.37,2,6.6,6.6,0,0,0,2,1.32,5.75,5.75,0,0,0,2.3.48,7.74,7.74,0,0,0,2.4-.36,11.35,11.35,0,0,0,2.14-1,19.08,19.08,0,0,0,2-1.32l2.11-1.54Z" transform="translate(-170.17 -203.02)"/><path class="cls-1" d="M372.58,255.4l24.24-29.14H372.58V223.4h32.66v1.66l-24.8,29.44h24.8v2.86H372.58Z" transform="translate(-170.17 -203.02)"/><path class="cls-1" d="M427,258.08a15.16,15.16,0,0,1-6.22-1.29A16.49,16.49,0,0,1,411,241.67a24,24,0,0,1,1.14-7.54,18.22,18.22,0,0,1,3.25-6,15.1,15.1,0,0,1,5.06-4,14.89,14.89,0,0,1,6.56-1.43,14.3,14.3,0,0,1,5.84,1.18,14.67,14.67,0,0,1,4.57,3.15,14.26,14.26,0,0,1,4.05,10h-25.3a20.8,20.8,0,0,0,.93,6.34,16,16,0,0,0,2.6,5,12.12,12.12,0,0,0,4,3.31,10.85,10.85,0,0,0,5.09,1.2,14.74,14.74,0,0,0,4.46-.68,16,16,0,0,0,3.85-1.79,12.54,12.54,0,0,0,2.88-2.56,8.84,8.84,0,0,0,1.64-3l.83.39a17.2,17.2,0,0,1-2.34,5,19.63,19.63,0,0,1-3.66,4,16.77,16.77,0,0,1-4.53,2.74A12.94,12.94,0,0,1,427,258.08Zm6.7-23.73h.66a8.76,8.76,0,0,0-.73-3.59,8.66,8.66,0,0,0-2-2.86,9.32,9.32,0,0,0-3-1.91,9.76,9.76,0,0,0-3.68-.7,7.64,7.64,0,0,0-3.16.68,9,9,0,0,0-2.7,1.89,10.06,10.06,0,0,0-2,2.87,10.2,10.2,0,0,0-.9,3.58Z" transform="translate(-170.17 -203.02)"/><polygon class="cls-1" points="117.34 8.68 118.12 13.59 113.75 11.23 109.32 13.49 110.22 8.6 106.7 5.09 111.63 4.43 113.89 0 116.03 4.48 120.94 5.26 117.34 8.68"/></svg>